<?xml version="1.0" encoding="UTF-8"?>
<svg id="Capa_1" data-name="Capa 1" xmlns="http://www.w3.org/2000/svg" viewBox="0 0 429.45 561.21">
  <defs>
    <style>
      .cls-1 {
        fill: #e4e1dc;
      }

      .cls-2 {
        fill: #87952a;
      }
    </style>
  </defs>
  <rect class="cls-1" width="429.45" height="561.21"/>
  <g>
    <path class="cls-2" d="M214.74,345.02s0,0,0,0c-.03,0-.07-.02,0,0Z"/>
    <path class="cls-2" d="M214.72,345.02h0s.02,0,0,0Z"/>
    <path class="cls-2" d="M214.73,345.02s0,0,0,0c-.02,0-.03-.01-.03,0,.02,0,.02,0,.02.01Z"/>
    <polygon class="cls-2" points="214.72 345.02 214.72 345.02 214.72 345.02 214.72 345.02"/>
    <polygon class="cls-2" points="214.72 353.17 214.72 353.17 214.72 353.17 214.72 353.17"/>
    <polygon class="cls-2" points="214.72 353.17 214.72 353.17 214.72 353.17 214.72 353.17"/>
    <rect class="cls-2" x="214.72" y="353.17" width="0" height="0" transform="translate(-192.33 281.45) rotate(-48.71)"/>
    <g>
      <path class="cls-2" d="M140.4,448.51v-6.55h30.85v6.55h-30.85ZM159.38,445.35v37.17h-7.1v-37.17h7.1Z"/>
      <path class="cls-2" d="M183.29,483.25c-2.7,0-5.1-.62-7.19-1.86-2.09-1.24-3.73-2.94-4.91-5.1-1.18-2.16-1.77-4.65-1.77-7.46s.57-5.36,1.72-7.55c1.15-2.18,2.75-3.89,4.83-5.13,2.07-1.24,4.44-1.86,7.1-1.86s5.16.58,7.16,1.75c2,1.17,3.54,2.78,4.63,4.86s1.64,4.55,1.64,7.43v2.05l-23.52.05.11-4.33h16.7c0-1.89-.6-3.4-1.8-4.55-1.2-1.15-2.82-1.72-4.86-1.72-1.59,0-2.93.33-4.02,1-1.09.67-1.91,1.66-2.47,3-.55,1.33-.83,2.96-.83,4.88,0,2.96.64,5.2,1.92,6.71,1.28,1.52,3.17,2.27,5.69,2.27,1.85,0,3.37-.35,4.58-1.05,1.2-.7,1.99-1.7,2.36-3h6.27c-.59,3-2.06,5.35-4.41,7.05-2.35,1.7-5.32,2.55-8.9,2.55Z"/>
      <path class="cls-2" d="M208.7,482.53h-6.77v-27.41h6.27l.55,3.55c.85-1.37,2.06-2.44,3.64-3.22,1.57-.78,3.28-1.16,5.13-1.16,3.44,0,6.04,1.02,7.8,3.05,1.76,2.03,2.63,4.81,2.63,8.32v16.87h-6.77v-15.26c0-2.29-.52-4-1.55-5.13-1.04-1.13-2.44-1.69-4.22-1.69-2.11,0-3.76.67-4.94,2-1.18,1.33-1.77,3.11-1.77,5.33v14.76Z"/>
      <path class="cls-2" d="M242.77,483.25c-2.88,0-5.17-.78-6.85-2.36-1.68-1.57-2.52-3.63-2.52-6.19s.88-4.52,2.64-6.02c1.76-1.5,4.26-2.38,7.52-2.64l8.21-.67v-.61c0-1.26-.23-2.26-.69-3.02-.46-.76-1.12-1.31-1.97-1.66-.85-.35-1.85-.53-3-.53-2,0-3.53.4-4.61,1.19-1.07.8-1.61,1.92-1.61,3.36h-5.77c0-2,.51-3.73,1.53-5.19,1.02-1.46,2.46-2.6,4.33-3.41,1.87-.81,4.02-1.22,6.46-1.22s4.6.44,6.38,1.3c1.77.87,3.14,2.16,4.1,3.88.96,1.72,1.44,3.86,1.44,6.41v16.65h-5.94l-.5-4.05c-.59,1.41-1.73,2.55-3.41,3.44-1.68.89-3.6,1.33-5.74,1.33ZM244.93,478.14c2.11,0,3.78-.59,5.02-1.77,1.24-1.18,1.86-2.83,1.86-4.94v-1.44l-5.71.44c-2.11.19-3.61.62-4.5,1.3-.89.69-1.33,1.58-1.33,2.69,0,1.22.41,2.15,1.22,2.77.81.63,1.96.94,3.44.94Z"/>
      <path class="cls-2" d="M269.79,482.53h-7.71l9.43-13.43-9.43-13.98h7.88l6.05,9.32,5.83-9.32h7.6l-9.32,13.93,9.04,13.48h-7.77l-5.88-9.04-5.71,9.04Z"/>
    </g>
    <g>
      <path class="cls-2" d="M171.65,84.77c.75-.34,1.39-.64,1.77-.81-1.1.47-1.6.71-1.77.81Z"/>
      <path class="cls-2" d="M204.43,77.38c.11-.02.21-.05.26-.07-.15.03-.21.05-.26.07Z"/>
      <path class="cls-2" d="M94.34,211.32c-.02.46-.02.71,0,.84.03-.51.04-.89,0-.84Z"/>
      <path class="cls-2" d="M149.25,97.72c-.21.13-.51.33-.98.66.32-.23.65-.44.98-.66Z"/>
      <path class="cls-2" d="M129.28,347.25l-.84-1.22c-1.11-1.12-1.99-2.12-2.83-3.01-.82-.91-1.62-1.69-2.25-2.66.21.24.41.46.59.67-1.29-1.52-2.57-3.34-2.98-3.56l1.97,2.86c.92,1.12,1.97,2.22,2.87,3.31.9,1.09,1.75,2.08,2.49,2.78-.48-.55-.99-1.06-1.43-1.64.39.23,1.73,1.73,2.42,2.48Z"/>
      <path class="cls-2" d="M335,214.02c-.04-3.7-.16-7.98.03-6.72-.18-1.7-.17-.56-.24-.54-.32-4.99-.64-5.52-.98-8.48l.09,2.27c-.35-4.82-.36-1.09-.7-5.35.24.67.39.37.46-.36-.25-.68-.48-3.39-.73-5.22.04,1.15-.79-3.9-.45-.93-.83-4.2-.95-6.19-1.81-9.22.35,1.95-.91-3.58-.67-1.88-.93-4.02-1.47-6.82-1.03-5.77.33,1.39.81,3.63.9,3.44-.62-2.43-1.17-4.89-1.91-7.29-.44-1.82-1.05-4.15-.98-4.48-.96-2.23-2.05-6.84-2.99-8.46,1.08,2.33,1.46,4.33,1.75,5.26l-.4-1.1c.05.16.11.34.18.58-.45-.99-.85-2-1.34-2.98.91,2.99.38.45,1.77,4.66.67,2.59-1.15-2.37-1.92-4.29-1.21-3.42-2.58-6.84-4.05-10.25.25.44.55,1,.58.78-.97-2.34-2.39-5.12-1.98-3.97-.17-.37-.36-.74-.53-1.11l-1.48-3.25c-.01-.14.78,1.51,1.08,2.16-.41-.91-1.05-2.22-1.67-3.42-.46-.81-.9-1.56-1.23-2.12-.72-1.38-1.43-2.75-2.21-4.12-.89-1.58-1.81-3.17-2.75-4.77-.17-.32-.35-.67-.56-1.05-2.34-3.72-1.88-3.86-4.63-8.01-1.79-2.2-3.83-6.02-6.93-9.38.84.88,0-.19-.7-1.12-.73-.9-1.36-1.64.05-.22-.57-.74-2.14-2.59-4.04-4.44-1.86-1.88-4-3.79-5.32-5.01.47.34.4.22,1.07.75-1.95-1.59-2.59-2.17-3.13-2.61-.53-.45-.91-.86-2.43-1.95v.25c-1.24-.74-1.52-1.1-2.61-1.78.84.58,2.57,1.85,1.57,1.3-.73-.45-1.4-.87-2.09-1.29-.71-.39-1.43-.79-2.24-1.24.02-.08,1.16.53,1.93.94,0,0-3.23-1.91-3.71-2.2,1.33.56,2.92,1.56,4.1,2.07-4.59-2.7-.33-.27-2.51-1.71.55.53-4.16-2.08-6.83-3.05-.23-.21,1.85.76,2.54.97-4.85-2.56-7.56-3.12-14.23-5.28.15,0,.97.24,1.39.36-3.18-.92-5.36-1.69-7.47-2.06-3.08-.71-.49-.45-5.29-1.39,1.37.47-5.65-1.04-5.83-.73-1.23-.21-2.45-.45-3.68-.63-3.29-.19.82.49-5.58-.07-5.82-.54.59-.41-2.81-.8l-1.44.05-2.85-.26h.43c-.87-.03-2.06-.08-3.06-.12-1-.06-1.78-.12-1.78-.16.28-.05,2.14.03,2.41-.02-1.43,0-4.21-.21-7.07-.32-2.9-.13-5.78.03-7.27.31-1.7.03-5.18.36-4.75.2-1.52.29-7.61.85-9.83,1.39.28-.12-1.87.15-3.55.53,2.28-.36.87-.03-.65.36-2.02.24-7.58,1.69-8.48,1.74-3.03.98-1.86.82-2.49,1.16-.99.23-3.04.84-4.69,1.43-1.66.54-2.92,1.09-2.44.73,1.64-.72,5.37-1.9,4.62-1.82-3.19,1.01-1.35.53-3.93,1.53.18-.12-1.81.6-1.34.32-1.5.69-3.52,1.62-5.6,2.63,3.26-1.51-1.98,1.18,0,.31,1-.57,2-1.14,3.02-1.67,3.78-1.78.84-.25,2.32-.86-3.34,1.55-4.6,2.29-5.83,3-1.25.73-2.44,1.44-5.36,3.15-1.15.58-3.15,1.72-3.77,2.09,1.96-1.21,1.46-1.17.32-.53-2.8,1.9-5.2,3.27-7.49,4.82.81-.51.03.19-.59.7-5.2,4.1-2.11,1.51-4.46,3.21-3.96,3.25-7.03,6.11-9.79,8.92-2.74,2.83-5.2,5.6-7.61,8.93.86-.98,1.68-1.99,2.58-2.93l.68-1.12c2.06-2.23-.02.72-1.02,2.12-.33.29-3.36,4.32-2.24,2.65l-2.7,4.06c.48-.55,2.23-3.17,1.02-1.24-.96,1.28-3.82,5.38-2.14,2.72-1.46,2.12-3.27,4.87-2.85,4.47-1.17,1.71-1.07,1.65-.74.85.42-.75,1.26-2.12,1.75-2.91-1.87,2.71-1.78,2.27-1.26,1.41-.91,1.24-1.59,2.61-2.36,3.93.45-.9.38-.94.83-1.83-1.56,2.59-2.44,4.57-3.86,6.73l-.42,1.08c-.53.9-.99,1.67-1.39,2.35-.35.71-.65,1.32-.91,1.87-.53,1.09-.93,1.92-1.33,2.73-.77,1.63-1.51,3.19-3.17,6.71l.66-1.13c-2.03,5.52-1.74,3.94-4.46,11.37-1.37,4.23-1.97,7.06-1.66,6.54-.64,2.49-.92,3.02-1.31,4.11-.55,1.93-1.19,6.18-1.97,9.24.4-2.12.71-3.81,1.08-5.77-.31.53-1.47,6.72-2.25,9.93-.41,2.26-1.11,9.7-1.54,13.81.44-1.83.45-1.11.35,2.6-.08-.58-.52,4.97-.81,7.52-.03-1.27-.71,5.69-.36.29.19-1.56.41-2.27.52-4.42-.17,1.28-.75,4.69-.92,8.26-.05-.28-.13-2.15.06-4-.03,1.01.06.43.12.29.38-6.57-.4,1.38-.47.4-.15,1.75-.14,5.5-.03,3.73-.33,3.44-.18,10.44-.15,14.16.04.16.06-2,.22.58.16,3.85,0,3.58,0,5.15.04,1.15.56,6.98.49,6.41.28,2.55.07-2.74.5.81.41,2.39.49,5.69.8,8.52.15,1.71,0,.86-.17-.59-.14-1.46-.31-3.52-.4-4.22l.46,4.83.66,4.8c.26,2.84-.36-1.25-.7-4.09.36,3.85,1.11,8.78,1.42,9.89.24,2.42.57,3.66.86,5.93-.44-2.23-.8-2.03-1.32-5.56-.73-5.82.49,2.08-.1-2.88l-.23-.4c-.17-2.13-.52-3.81-.82-6.08-.12-1.28.1.27.23,1.12-.13-1.03-.25-2-.37-2.94-.08-.94-.15-1.83-.22-2.7-.15-1.73-.3-3.33-.53-4.88.18,2.79.37,6.29.8,9.37.4,3.08.75,5.78.81,7,.49,3.68,1.25,7.31,1.94,10.96.08-.01-.44-3.84.2-.77.05,1.3.39,4.57,1.24,8.77-.11-1.59,1.59,6.66,1.33,4.52-.52-1.93-.54-2.95-.58-3.23.86,4.05.32.51.79,2.73,1.51,7.4-.22-.24,1.27,7.02-.47-1.5-1.47-5.37-2.41-9.38-.04.3.86,4.03,1.1,5.75-.38-2.41.55,1.62.19-.35.61,2.94,1.5,6.06,2.38,9.34.89,3.28,1.76,6.73,2.81,10.21-.72-.98-3.29-11.79-3.11-9.48.9,3.45,1.04,3.4,1.72,6.17.48,2.39,2.2,8.1,3.58,12.78-.23-.71-.35-1.4-.52-2.1.26.88.67,2.15,1.13,3.46.45,1.31.84,2.69,1.31,3.68l-.27-.51.91,1.96c.13.31.15.39.13.39.94,2.19,3.75,7.55,6.31,11.28.06-.04-.58-.96-1.3-2.15-.72-1.19-1.67-2.56-2.15-3.53-.24-.54-2.12-4.29-1.08-2.54,2.54,5.02,4.87,8.18,8.68,13.21l-1.21-1.61c1.36,1.49,2.9,3.74,4.95,5.95,3.53,4.17-2.82-2.86-.7-.32-.16-.15-.33-.32-.5-.5,2.26,2.5,2.29,2.33,6.33,6.44.14.29-.93-.9-1.48-1.35,1.54,1.72,3.47,3.21,6.2,5.76-1.66-1.35-4.24-3.66-2.32-1.69l1.6,1.22c1.29,1.14.71.73,1.25,1.19,1.86,1.6-.31-.51,2.64,2.01.41.41,1.43,1.2.95.9,3.57,2.66,1.7,1.32,5.17,3.6-1.55-1.03-2.27-1.69-2.24-1.76.03-.07.8.44,2.42,1.5,4.45,3.15,7.8,4.77,10.98,6.76.72.37,1.49.65,2.24.97-1.48-.54,3.06,1.62,4.69,2.2.24.19-1.7-.52-3.6-1.46-.96-.44-1.94-.88-2.69-1.22-.73-.36-1.23-.58-1.27-.51,3.18,1.68,1.75,1.04.67.61,3.52,1.69,1.4.42,3.01,1.05,0,.02.36.21.89.46.53.26,1.2.6,1.84.85,1.26.53,2.26.96,1.16.61,3.07,1.27,3.68,1.25,5.99,2.05-.38-.04-.81-.07-.62.1.29.04,3.27,1.04,3.86,1.19-.54-.19,1.15.16-1.64-.59.37.02,1.99.51,3.54.89,1.54.39,2.99.68,2.92.61.25.27,6.11,1.18,9.12,1.46-.25-.41-5.59-.48-6.54-1.05,2,.28,5.35.74,9.02.98,3.67.25,7.63.31,10.84.24,5.54.1,0,.17,1.13.32-5.12.02-6.41-.11-10.86-.28,4.88.4,12.85.36,16.41.17,5.28-.12,5.88.33,12.29-.12-.86-.09-.72-.13-2.73-.07,1.72-.1,3.71-.22,5.56-.33,1.13-.17-2.86.1-.31-.16,1-.04,3.13-.18,2.72-.06l-.43.05c6.1-.66,4.46-.05,9.67-.91-.43-.02-1.56.22-2.85.31-1,0,2.23-.49,4.64-.85-.42.15,2.12-.27,3.82-.49,1.16,0-4.23.67-5.07.85,1.56-.17,3.12-.41,4.68-.61l-.99.11c1.69-.29,3.37-.61,5.05-.95-3.52.63-1.72.1-.18-.18,3.51-.56,7.02-1.28,6.64-1.03.38-.26,4.71-1.18,7.73-2.06-3.33.82-.46-.03.49-.34,1.67-.41,3.32-.79,5.01-1.3-5.23,1.68,1.15-.18-.04.3-1.49.69-4.66,1.49-7.45,2.18,2.75-.53,4.64-1.12,6.42-1.72,1.83-.63,3.5-1.37,5.77-2.36.03.06-.3.37-2.33,1.21.85-.26,4.09-1.96,6.98-3.59-.79.39-2.48,1.18.34-.53,1.27-.67,2.52-1.38,3.77-2.09,4.22-2.67,1.33-1.06,4.72-3.43-.77.48-1.55.93-2.33,1.37.27-.33,4.62-3.1,4.62-3.34-2.13,1.44-3.22,2.4-5.51,3.78-.95.39,2.81-1.91,4.02-2.9,2.35-1.51,3.2-2.22,3.96-2.76.74-.57,1.41-.93,3.03-2.24.39.21-5.2,4.52-4.26,4.3,1.08-.85,2.27-1.79,3.51-2.76,1.22-.99,2.4-2.1,3.58-3.12,1.18-1.02,2.2-2.13,3.17-3.04.97-.91,1.78-1.76,2.4-2.41,3.25-3.67,2.7-3.55,2.14-3.08,1.25-1.58,1.89-2.34,2.74-3.31l-1.37,1.83c3.74-4.72,5.58-7.64,8.89-12.99,1.75-3.1.88-1.95.33-1.28.62-1.12,1.31-2.21,1.88-3.36l-.3.5c.21-.86,1.92-3.82,3.01-6.13.07.03-.57,1.46-.47,1.34,1.02-2.03,2.51-5.12,3.13-6.86.09.03-.35,1.54-1.57,3.97-.14.25-.11.11-.24.36-.61,1.4-1.22,2.79-1.92,4.14,2.29-4.75,3.72-7.56,3.85-7.35,1.95-4.91-1.84,3.88.52-1.94,3.59-7.49,5.43-14.7,7.22-18.94,1.05-3.69,1.93-8.21,3.48-13.93-.14-.04.94-3.89.59-3.37-.78,2.75-1.44,5.32-2,7.77-.59,2.45-1.08,4.8-1.89,6.94-.65,2.47-.28,1.68-.52,2.81-.6,2.19-1.31,4.21-1.5,4.46,1.53-5.04.07-1.46,1.98-7.86-.39.77-1.8,6-2.66,8.25.15-.69-.16-.04-.71,1.43.05-.18.1-.39.16-.61,1.8-5.39,3.46-11.05,4.94-17.09.27-1.09,1.85-6.4,3.55-14.72l-.04.36.19-1.08c.13-.64.26-1.33.39-2.01-.16,1.59,0,1.92-.48,4.83,1.1-4.99,2.42-12.15,2.79-15.4.3-1.25.49-1.79.54-1.22.46-5.11,1.1-7.91,1.49-12.32.25-4.69-.58,4.68-.47,1.26.17-1.18.29-3.18.36-4.54-.12,1.95-.56,6.11-.94,9.07.26-2.55.05-2.29.05-3-.16,1.42-.29,2.83-.48,4.25-.17-.3.55-5.22.58-7.21.09,1.28.17.58.25,1.86.25-3.7.61-9.17.83-12.36.13-1.85.07,1.56.05,2.56.21-.85.05-3.7.25-4.41.11.57-.06,2.27-.07,3.56l.21-5.41.07-5.42s.06.68.07,1.56c0,.89-.02,1.99-.03,2.85.14-3.28.09-5.7-.28-9.54ZM213.84,136.47c-3.26-.19-14.78-2.95-17.17-4.51-4.7-3.08-11.4-10.34-9.98-15.68,2.88-10.78,17.63-17.02,29.93-15.95,10.71.93,27.42,7.64,27.13,18.21-.3,10.76-18.49,18.58-29.91,17.93ZM325.14,160.53c.18.39.4.87.71,1.7l-.21-.67c.71,1.91,1.3,3.86,1.89,5.81-.02.3-.6-1.45-.6-1.45.5,1.78.89,3.18,1.23,4.41.28,1.24.52,2.29.77,3.37.07.27.13.55.19.83-1.11-4.63-2.43-9.3-3.98-13.98ZM331.23,184.15l-.06.06c-.18-.97-.37-1.94-.56-2.91.02-.41.18-.39.69,1.97.5,2.5.38,2.82.71,4.92-.25-1.25-.61-2.34-.78-4.03Z"/>
      <path class="cls-2" d="M111.7,322.07c-.16-.32-.3-.6-.38-.73.12.26.36.73.38.73Z"/>
      <path class="cls-2" d="M168.62,372.24c-.07-.04-.08-.06-.11-.09-.07,0-.06.01.11.09Z"/>
      <path class="cls-2" d="M325.19,158.83l-.34-.93c.15.42.24.66.34.93Z"/>
    </g>
  </g>
</svg>